<mxfile host="app.diagrams.net" modified="2020-12-03T13:41:15.963Z" agent="5.0 (Windows NT 10.0; Win64; x64) AppleWebKit/537.36 (KHTML, like Gecko) Chrome/86.0.4240.198 Safari/537.36" etag="VziSqROkTHNWbovtHbrk" version="13.8.8" type="github">
  <diagram id="LPT5-VGVfMyoEc1ZcUUu" name="Page-1">
    <mxGraphModel dx="782" dy="389" grid="1" gridSize="10" guides="1" tooltips="1" connect="1" arrows="1" fold="1" page="1" pageScale="1" pageWidth="850" pageHeight="1100" math="0" shadow="0">
      <root>
        <mxCell id="0" />
        <mxCell id="1" parent="0" />
        <mxCell id="hLASd6PDjsQeOY2Y6HcI-10" value="" style="rounded=0;whiteSpace=wrap;html=1;strokeColor=#6c8ebf;fillColor=#FFFFFF;dashed=1;" vertex="1" parent="1">
          <mxGeometry x="80" y="200" width="470" height="290" as="geometry" />
        </mxCell>
        <mxCell id="hLASd6PDjsQeOY2Y6HcI-11" value="&lt;font color=&quot;#6c8ebf&quot;&gt;Sprint N&lt;/font&gt;" style="text;html=1;strokeColor=none;fillColor=none;align=center;verticalAlign=middle;whiteSpace=wrap;rounded=0;dashed=1;" vertex="1" parent="1">
          <mxGeometry x="83" y="200" width="60" height="20" as="geometry" />
        </mxCell>
        <mxCell id="hLASd6PDjsQeOY2Y6HcI-12" value="&lt;font color=&quot;#6c8ebf&quot;&gt;&lt;b&gt;Feature Controlled Local Availability&lt;/b&gt;&lt;/font&gt;" style="rounded=1;whiteSpace=wrap;html=1;fillColor=#dae8fc;strokeWidth=2;strokeColor=#6c8ebf;" vertex="1" parent="1">
          <mxGeometry x="160" y="223" width="270" height="37" as="geometry" />
        </mxCell>
        <mxCell id="hLASd6PDjsQeOY2Y6HcI-13" value="&lt;b&gt;&lt;font color=&quot;#b85450&quot;&gt;Feature Controlled Non Prod Availability&lt;/font&gt;&lt;/b&gt;" style="rounded=1;whiteSpace=wrap;html=1;fillColor=#f8cecc;strokeWidth=2;strokeColor=#b85450;" vertex="1" parent="1">
          <mxGeometry x="190" y="290" width="270" height="37" as="geometry" />
        </mxCell>
        <mxCell id="hLASd6PDjsQeOY2Y6HcI-16" value="" style="shape=singleArrow;direction=south;whiteSpace=wrap;html=1;strokeWidth=2;fontColor=#333333;fillColor=#C7C7C7;strokeColor=#C7C7C7;" vertex="1" parent="1">
          <mxGeometry x="390" y="260" width="40" height="30" as="geometry" />
        </mxCell>
        <mxCell id="hLASd6PDjsQeOY2Y6HcI-17" value="&lt;b&gt;&lt;font color=&quot;#d79b00&quot;&gt;Feature Controlled Prod Availability&lt;/font&gt;&lt;/b&gt;" style="rounded=1;whiteSpace=wrap;html=1;fillColor=#ffe6cc;strokeWidth=2;strokeColor=#d79b00;" vertex="1" parent="1">
          <mxGeometry x="225" y="360" width="270" height="37" as="geometry" />
        </mxCell>
        <mxCell id="hLASd6PDjsQeOY2Y6HcI-18" value="" style="shape=singleArrow;direction=south;whiteSpace=wrap;html=1;strokeWidth=2;fontColor=#333333;fillColor=#C7C7C7;strokeColor=#C7C7C7;" vertex="1" parent="1">
          <mxGeometry x="421" y="329" width="40" height="30" as="geometry" />
        </mxCell>
        <mxCell id="hLASd6PDjsQeOY2Y6HcI-19" value="" style="endArrow=none;dashed=1;html=1;exitX=0;exitY=0.5;exitDx=0;exitDy=0;strokeColor=#6C8EBF;" edge="1" parent="1">
          <mxGeometry width="50" height="50" relative="1" as="geometry">
            <mxPoint x="80" y="345" as="sourcePoint" />
            <mxPoint x="550" y="345" as="targetPoint" />
          </mxGeometry>
        </mxCell>
        <mxCell id="hLASd6PDjsQeOY2Y6HcI-20" value="&lt;font color=&quot;#6c8ebf&quot;&gt;Sprint N+1&lt;/font&gt;" style="text;html=1;strokeColor=none;fillColor=none;align=center;verticalAlign=middle;whiteSpace=wrap;rounded=0;dashed=1;" vertex="1" parent="1">
          <mxGeometry x="83" y="346" width="67" height="20" as="geometry" />
        </mxCell>
        <mxCell id="hLASd6PDjsQeOY2Y6HcI-24" value="&lt;font color=&quot;#6c8ebf&quot;&gt;Sprint N+2&lt;/font&gt;" style="text;html=1;strokeColor=none;fillColor=none;align=center;verticalAlign=middle;whiteSpace=wrap;rounded=0;dashed=1;" vertex="1" parent="1">
          <mxGeometry x="83" y="414" width="67" height="20" as="geometry" />
        </mxCell>
        <mxCell id="hLASd6PDjsQeOY2Y6HcI-25" value="&lt;b&gt;&lt;font color=&quot;#82b366&quot;&gt;Prod General Availability&lt;/font&gt;&lt;/b&gt;" style="rounded=1;whiteSpace=wrap;html=1;fillColor=#d5e8d4;strokeWidth=2;strokeColor=#82b366;" vertex="1" parent="1">
          <mxGeometry x="260" y="430" width="270" height="37" as="geometry" />
        </mxCell>
        <mxCell id="hLASd6PDjsQeOY2Y6HcI-26" value="" style="shape=singleArrow;direction=south;whiteSpace=wrap;html=1;strokeWidth=2;fontColor=#333333;fillColor=#C7C7C7;strokeColor=#C7C7C7;" vertex="1" parent="1">
          <mxGeometry x="451" y="399" width="40" height="30" as="geometry" />
        </mxCell>
        <mxCell id="hLASd6PDjsQeOY2Y6HcI-29" value="" style="endArrow=none;dashed=1;html=1;exitX=0;exitY=0.5;exitDx=0;exitDy=0;strokeColor=#6C8EBF;" edge="1" parent="1">
          <mxGeometry width="50" height="50" relative="1" as="geometry">
            <mxPoint x="80" y="413.5" as="sourcePoint" />
            <mxPoint x="550" y="414" as="targetPoint" />
          </mxGeometry>
        </mxCell>
      </root>
    </mxGraphModel>
  </diagram>
</mxfile>
